<svg width="732" height="598" viewBox="0 0 732 598" fill="none" xmlns="http://www.w3.org/2000/svg">
<path d="M465.5 598C492.286 598 514 574.495 514 545.5C514 516.505 492.286 493 465.5 493C438.714 493 417 516.505 417 545.5C417 574.495 438.714 598 465.5 598Z" fill="#C4C4C4"/>
<path d="M460.988 0.00393979C385.17 0.581486 323.091 67.0252 322.014 148.782C322.004 149.537 321.999 154.844 322 161.786C322.001 171.965 325.75 181.726 332.424 188.923C339.097 196.121 348.149 200.165 357.587 200.166H357.587C362.266 200.165 366.898 199.169 371.22 197.237C375.542 195.304 379.468 192.472 382.775 188.903C386.081 185.333 388.703 181.096 390.491 176.433C392.278 171.77 393.196 166.773 393.192 161.727C393.188 157.005 393.186 153.737 393.186 153.536C393.184 140.901 396.231 128.482 402.029 117.502C407.827 106.522 416.176 97.3593 426.254 90.9142C436.332 84.4692 447.792 80.9642 459.507 80.7442C471.222 80.5242 482.788 83.5966 493.068 89.6594C503.348 95.7221 511.987 104.566 518.136 115.322C524.285 126.077 527.732 138.374 528.137 151.002C528.543 163.63 525.893 176.154 520.449 187.342C515.005 198.531 506.953 207.998 497.087 214.814L497.099 214.83C497.099 214.83 446.448 249.995 431.006 298.235L431.019 298.238C428.304 308.12 426.928 318.374 426.934 328.681C426.934 332.918 427.165 369.99 427.612 400.079C427.768 410.461 431.702 420.36 438.566 427.642C445.43 434.923 454.673 439.002 464.302 439H464.302C469.14 439 473.93 437.968 478.397 435.964C482.863 433.96 486.919 431.023 490.329 427.322C493.739 423.622 496.437 419.23 498.268 414.401C500.099 409.571 501.026 404.399 500.996 399.182C500.841 371.626 500.757 339.54 500.757 337.211C500.757 307.59 527.254 278.077 549.02 258.831C574.084 236.668 592.12 206.466 599.364 172.397C600.967 165.383 601.851 158.2 602 150.977C602 131.059 598.345 111.337 591.246 92.949C584.147 74.5606 573.744 57.8688 560.637 43.8353C547.529 29.8019 531.976 18.7041 514.874 11.1815C497.772 3.65886 479.458 -0.13995 460.988 0.00393979V0.00393979Z" fill="#C4C4C4"/>
<path d="M367.233 181.765C357.774 181.764 348.703 177.712 342.015 170.5C335.327 163.287 331.57 153.506 331.569 143.307C331.568 136.35 331.573 131.032 331.583 130.275C331.883 106.449 337.448 83.0434 347.816 62C330.782 87.1442 321.416 117.375 321.014 148.51C321.004 149.266 321 154.585 321 161.541C321.001 171.74 324.758 181.522 331.446 188.734C338.134 195.946 347.205 199.999 356.664 200V200C364.436 199.997 371.995 197.258 378.193 192.2C384.39 187.142 388.887 180.041 391 171.975C384.47 178.29 376.004 181.777 367.233 181.765V181.765Z" fill="#252525"/>
<path d="M462.848 81.1327C473.81 81.6901 484.481 85.0719 493.945 90.9877C503.41 96.9035 511.384 105.177 517.184 115.096C522.983 125.016 526.435 136.287 527.243 147.94C528.05 159.593 526.19 171.281 521.82 182C528.14 174.097 532.785 164.836 535.439 154.849C538.093 144.861 538.693 134.382 537.198 124.125C535.703 113.868 532.149 104.075 526.777 95.4139C521.406 86.7524 514.343 79.4259 506.071 73.934C497.799 68.442 488.512 64.9138 478.843 63.5898C469.174 62.2658 459.351 63.1772 450.042 66.2618C440.734 69.3464 432.16 74.5317 424.905 81.4642C417.65 88.3967 411.884 96.9133 408 106.434C414.712 98.0262 423.149 91.3726 432.658 86.9859C442.168 82.5993 452.497 80.5967 462.848 81.1327Z" fill="#252525"/>
<path d="M474.182 420.741C464.5 420.743 455.205 416.65 448.303 409.343C441.4 402.037 437.444 392.104 437.287 381.687C436.838 351.495 436.605 314.296 436.605 310.045C436.599 299.703 437.983 289.414 440.713 279.498L440.7 279.494C442.313 274.517 444.26 269.673 446.527 265C439.568 274.979 434.03 286.018 430.095 297.753L430.108 297.757C427.377 307.673 425.994 317.962 426 328.304C426 332.556 426.233 369.754 426.681 399.946C426.839 410.363 430.795 420.296 437.697 427.603C444.6 434.909 453.895 439.002 463.577 439V439C471.56 438.998 479.327 436.212 485.714 431.058C492.101 425.904 496.763 418.661 499 410.415C492.216 417.071 483.363 420.755 474.182 420.741V420.741Z" fill="#252525"/>
<path d="M454.955 584.821C448.055 581.603 441.948 576.713 437.115 570.535C432.283 564.358 428.857 557.063 427.109 549.225C425.361 541.388 425.338 533.222 427.043 525.374C428.747 517.525 432.132 510.208 436.93 504C431.367 508.349 426.731 513.914 423.331 520.327C419.931 526.74 417.843 533.855 417.207 541.197C416.572 548.54 417.402 555.944 419.643 562.917C421.884 569.89 425.484 576.273 430.205 581.643C434.927 587.012 440.661 591.245 447.027 594.061C453.393 596.876 460.246 598.21 467.13 597.973C474.014 597.737 480.773 595.935 486.957 592.688C493.142 589.441 498.61 584.823 503 579.14C496.153 584.498 488.115 587.842 479.685 588.838C471.256 589.835 462.729 588.45 454.955 584.821V584.821Z" fill="#252525"/>
<path d="M667.205 292.326C673.42 293.792 679.593 297.521 684.801 302.954C690.008 308.387 693.971 315.233 696.097 322.468C700.324 338.481 694.335 350.785 683.681 356.193C671.779 362.235 657.033 362.053 645.939 369.825C636.229 376.626 629.867 389.35 632.94 405.069C635.143 416.341 649.977 417.91 647.763 406.584C644.12 387.948 660.364 382.219 672.026 379.158C686.589 375.336 701.512 371.553 708.656 356.196C711.545 349.616 712.724 341.819 712.087 333.517C711.45 325.215 709.017 316.674 705.01 308.674C701.002 300.675 695.55 293.472 689.15 287.726C682.75 281.979 675.607 277.872 668.375 275.781C658.787 273.154 657.496 289.666 667.205 292.326V292.326Z" fill="#C4C4C4"/>
<path d="M609.893 442.178C615.794 450.75 625.323 453.911 631.176 449.239C637.028 444.566 636.989 433.829 631.088 425.257C625.187 416.684 615.659 413.523 609.806 418.196C603.953 422.869 603.992 433.606 609.893 442.178Z" fill="#C4C4C4"/>
<path d="M107.467 91.7398C52.0497 117.205 18.2423 186.185 37.1209 225.868C58.5197 270.846 139.229 255.725 182.86 204.273C200.412 183.576 175.552 166.959 157.901 187.774C125.919 225.488 65.719 227.585 69.15 184.038C69.6732 173.769 73.5881 162.726 80.3735 152.378C87.1588 142.03 96.4927 132.869 107.133 126.113C116.697 121.152 126.568 118.134 135.954 117.3C145.34 116.467 153.981 117.841 161.181 121.313C200.292 137.045 199.503 185.142 185.626 230.137C177.712 255.799 165.022 280.93 155.063 306.499C149.685 318.145 146.643 329.903 146.135 341.013C145.626 352.123 147.661 362.34 152.11 371.005C158.659 379.522 168.341 385.149 180.107 387.276C191.873 389.404 205.276 387.95 218.866 383.074C254.609 371.223 284.615 342.171 312.417 314.621C331.842 295.372 306.788 278.967 287.458 298.123C263.141 322.218 226.773 358.35 196.208 351.462C170.033 345.563 189.219 306.93 199.04 284.953C223.722 229.723 244.255 167.399 223.458 123.286C206.421 87.1478 158.913 68.1005 107.467 91.7398Z" fill="#C4C4C4"/>
</svg>
